<?xml version="1.0" standalone="no"?>
<!DOCTYPE svg PUBLIC "-//W3C//DTD SVG 20010904//EN"
 "http://www.w3.org/TR/2001/REC-SVG-20010904/DTD/svg10.dtd">
<svg version="1.0" xmlns="http://www.w3.org/2000/svg"
 width="512.000000pt" height="512.000000pt" viewBox="0 0 512.000000 512.000000"
 preserveAspectRatio="xMidYMid meet">
<metadata>
Created by potrace 1.16, written by Peter Selinger 2001-2019
</metadata>
<g transform="translate(0.000000,512.000000) scale(0.100000,-0.100000)"
fill="#000000" stroke="none">
<path d="M2961 4775 c-30 -9 -98 -37 -150 -64 -53 -26 -123 -53 -156 -60 -33
-7 -80 -24 -104 -37 -31 -17 -53 -23 -72 -19 -34 8 -41 -3 -29 -44 8 -29 7
-30 -10 -21 -28 15 -43 48 -36 81 6 29 5 29 -22 15 -40 -21 -56 -42 -102 -138
-48 -99 -61 -184 -41 -264 25 -100 106 -175 202 -189 l46 -7 6 -53 c3 -29 1
-72 -4 -96 -6 -24 -8 -53 -5 -65 5 -18 -4 -29 -44 -59 -28 -20 -50 -43 -50
-52 0 -8 21 -43 46 -79 46 -64 85 -94 122 -94 19 0 19 -3 7 -42 -9 -31 -9 -50
-2 -66 10 -21 22 -27 72 -34 14 -2 20 -12 21 -35 1 -17 11 -48 22 -69 31 -60
52 -121 52 -155 0 -88 62 -139 150 -122 l46 9 -76 -77 c-93 -95 -120 -140
-102 -170 11 -18 10 -23 -13 -41 -37 -29 -107 -126 -100 -138 4 -6 3 -9 -2 -8
-4 1 -30 -13 -56 -32 -70 -51 -109 -62 -234 -67 -109 -5 -113 -5 -113 15 0 12
-5 24 -10 27 -6 4 4 24 24 48 45 56 56 86 56 158 0 55 3 63 32 90 18 16 28 29
23 29 -5 0 -22 -12 -37 -27 -25 -24 -28 -34 -28 -90 0 -44 -6 -76 -20 -102
-24 -47 -121 -136 -131 -119 -4 7 -11 3 -18 -11 -8 -14 -8 -21 -1 -21 5 0 10
5 10 11 0 5 4 8 9 5 5 -3 20 3 33 14 19 14 28 16 36 8 21 -21 13 -37 -20 -41
-18 -3 37 -4 122 -3 168 2 214 14 282 71 36 30 42 28 28 -11 -20 -52 -50 -255
-50 -340 0 -45 -7 -109 -15 -141 -8 -31 -15 -73 -15 -93 -1 -54 -33 -115 -111
-202 -69 -78 -99 -131 -113 -195 -5 -20 -24 -45 -55 -72 -41 -34 -51 -49 -61
-93 -16 -68 -21 -73 -99 -113 -36 -18 -83 -47 -105 -64 -31 -25 -48 -31 -85
-31 -37 0 -56 -7 -90 -31 -23 -18 -53 -31 -67 -30 -13 1 -30 2 -36 2 -7 1 -49
-2 -93 -6 -75 -7 -84 -6 -132 19 -44 22 -57 24 -80 15 -18 -7 -73 -8 -153 -4
-161 8 -176 3 -218 -68 -18 -31 -37 -57 -41 -57 -10 0 -19 38 -102 440 -33
162 -77 380 -99 483 -39 189 -54 227 -90 227 -25 0 -233 -79 -249 -95 -12 -11
3 -98 98 -581 62 -312 117 -576 122 -586 10 -18 142 -86 314 -160 l90 -39 -57
6 c-32 4 -97 23 -145 43 l-88 36 -277 4 c-273 4 -278 3 -278 -16 0 -31 34 -53
263 -165 321 -158 428 -206 486 -217 31 -6 236 -10 485 -10 l431 0 135 -67
135 -67 -60 -8 c-50 -6 -900 -49 -1285 -65 -148 -6 -150 -7 -117 -41 23 -24
27 -37 27 -90 l0 -63 313 3 312 3 275 57 c151 31 340 66 420 78 80 12 153 26
163 31 11 6 17 22 17 44 0 41 -35 73 -145 131 l-74 39 46 12 c43 11 53 9 184
-35 123 -42 140 -50 148 -74 12 -34 43 -43 266 -74 l50 -7 -75 -12 c-163 -27
-717 -170 -739 -191 -2 -2 187 -4 420 -4 261 0 418 4 408 10 -40 24 -169 51
-243 51 -43 0 -77 1 -75 3 2 2 98 23 214 46 195 39 214 41 265 30 70 -16 183
-50 178 -55 -2 -2 -48 8 -103 21 -55 13 -107 23 -115 22 -8 -2 29 -24 83 -50
92 -45 130 -70 70 -47 -34 13 -196 49 -201 45 -1 -2 20 -20 48 -40 l50 -36
548 0 547 0 -80 28 c-44 16 -93 35 -109 44 l-29 15 41 6 c35 6 55 22 162 134
67 69 132 147 145 172 12 25 90 251 173 501 82 250 173 506 202 569 28 62 53
132 55 155 1 22 12 64 24 91 l20 50 -6 -100 c-6 -108 -10 -133 -101 -660 -34
-192 -70 -380 -81 -416 -12 -37 -50 -128 -86 -203 -66 -140 -95 -221 -95 -265
l0 -26 18 30 c10 17 53 112 97 213 43 100 80 181 82 179 1 -2 -10 -40 -27 -84
-16 -44 -36 -118 -45 -164 -9 -46 -24 -126 -34 -176 l-18 -93 93 0 93 0 16 52
c15 51 105 499 161 805 25 133 30 151 43 138 9 -9 14 -32 12 -62 -3 -104 -125
-810 -151 -878 -16 -41 -12 -55 14 -55 27 0 23 -19 71 270 46 275 95 620 95
668 0 24 -8 49 -20 65 -11 14 -20 36 -20 49 0 12 30 151 65 308 156 680 164
721 146 786 -16 59 -65 127 -108 151 -42 23 -153 53 -199 53 -40 0 -46 6 -78
82 -86 206 -182 302 -528 532 -129 86 -147 101 -151 129 -3 18 -20 73 -39 122
-38 98 -55 115 -120 115 l-37 0 -18 78 c-27 114 -22 235 16 422 40 197 49 333
27 416 -36 139 -89 219 -170 259 -135 66 -311 31 -423 -83 l-46 -47 29 41 c35
51 73 78 155 111 55 22 74 25 154 21 146 -6 225 -57 278 -178 l15 -35 1 31 c3
92 -60 188 -145 225 -26 10 -44 25 -44 34 0 30 -93 111 -156 135 -77 30 -288
38 -373 15z m99 -36 c-98 -18 -115 -21 -108 -14 11 11 69 23 113 23 l40 0 -45
-9z m275 -8 c43 -19 95 -73 95 -97 0 -8 -17 4 -37 27 -20 22 -57 51 -82 64
-54 28 -34 33 24 6z m-436 -85 c-2 -2 -15 -9 -29 -15 -24 -11 -24 -11 -6 3 16
13 49 24 35 12z m261 -18 c19 0 -24 -4 -95 -8 -117 -5 -137 -9 -196 -36 -35
-17 -88 -48 -117 -69 -29 -20 -72 -43 -95 -50 l-42 -12 60 -12 c58 -12 148
-41 143 -46 -2 -2 -68 13 -148 34 l-144 36 59 6 c72 7 125 33 185 90 24 24 41
38 36 31 -5 -8 -2 -10 8 -6 9 3 14 10 11 14 -3 5 0 12 6 16 8 4 9 3 5 -4 -9
-15 -4 -15 31 -1 39 16 148 28 208 23 28 -2 66 -5 85 -6z m-503 -19 c-26 -20
-97 -38 -97 -25 0 10 81 46 104 46 16 0 15 -3 -7 -21z m73 -14 c0 -6 -70 -35
-84 -34 -6 0 9 9 34 19 53 22 50 21 50 15z m829 -44 c21 -11 46 -32 56 -48 17
-28 17 -27 -16 4 -19 18 -50 39 -69 47 -19 8 -29 15 -22 16 7 0 30 -9 51 -19z
m-459 -4 c0 -2 -12 -14 -27 -28 l-28 -24 24 28 c23 25 31 32 31 24z m210 -51
c-106 -30 -165 -71 -220 -153 -40 -59 -38 -64 8 -22 36 35 102 79 117 79 4 0
-12 -14 -36 -31 -24 -18 -62 -49 -85 -69 -23 -21 -52 -43 -65 -49 -21 -11 -20
-9 4 9 15 12 25 26 22 30 -3 5 5 31 19 57 22 44 50 76 99 113 26 19 117 49
152 48 26 0 23 -2 -15 -12z m-936 -104 c15 -11 46 -23 69 -27 126 -19 186 -55
201 -120 l8 -30 -24 34 c-33 49 -78 72 -151 77 -79 6 -123 28 -136 67 -13 37
-14 73 -1 41 4 -12 20 -30 34 -42z m291 21 c90 -26 212 -53 250 -56 28 -3 21
-4 -21 -5 -39 -1 -82 5 -119 18 -32 11 -60 20 -63 20 -3 0 15 -15 40 -34 42
-32 84 -94 72 -106 -3 -3 -15 8 -27 24 l-21 29 -13 -39 c-7 -21 -11 -28 -8
-15 9 50 -29 102 -90 125 -19 7 -19 6 1 -16 38 -42 39 -54 1 -21 -38 33 -118
63 -169 63 -25 0 -98 24 -98 32 0 7 229 -9 265 -19z m-294 -100 c24 -23 74
-56 111 -73 37 -18 75 -41 85 -52 16 -18 15 -18 -21 3 -32 19 -51 22 -112 21
-75 -2 -116 10 -143 42 -18 21 -9 20 31 -3 18 -11 53 -22 78 -25 l45 -6 -50
16 c-53 17 -105 49 -105 65 0 5 3 8 8 8 20 -3 23 3 9 24 -14 22 -21 49 -18 72
1 6 10 -3 20 -20 10 -16 38 -49 62 -72z m1127 -23 c23 -10 42 -22 42 -25 0 -3
-8 -1 -18 4 -10 5 -46 14 -81 21 -80 14 -170 2 -301 -42 -105 -35 -99 -49 10
-24 72 17 144 19 195 6 22 -6 9 -8 -49 -9 -44 0 -108 -6 -143 -12 -63 -11
-144 -5 -127 10 5 4 34 18 64 31 140 60 325 78 408 40z m-562 -49 c-3 -5 7
-11 22 -14 15 -3 40 -17 55 -31 25 -23 27 -31 27 -105 l0 -81 38 -23 c20 -12
50 -30 67 -39 16 -9 31 -21 33 -27 8 -25 -265 -147 -285 -127 -14 14 42 45 87
48 l45 3 -55 28 c-30 15 -65 27 -76 27 -12 0 -46 -16 -75 -36 -77 -51 -124
-74 -155 -74 l-28 0 27 -28 c28 -29 27 -42 -4 -42 -11 0 -27 15 -38 38 -13 23
-20 30 -21 19 0 -17 -1 -17 -31 0 -57 33 -71 52 -64 85 4 16 8 78 9 138 0 60
4 112 9 116 4 4 25 2 48 -5 39 -12 42 -11 102 28 67 43 135 71 174 71 13 0 22
4 18 9 -3 5 0 13 6 17 8 4 9 3 5 -4 -10 -16 3 -14 34 3 30 17 33 18 26 6z
m304 -50 c0 -6 -21 -11 -47 -13 l-48 -4 39 -17 c21 -10 36 -21 33 -24 -11 -11
-96 8 -119 27 l-23 18 45 10 c59 13 120 14 120 3z m-880 -34 c13 4 13 3 1 -5
-12 -9 -11 -16 7 -47 28 -46 28 -53 1 -29 -23 21 -43 56 -53 94 l-7 25 18 -21
c10 -11 25 -19 33 -17z m105 -32 c26 -25 35 -85 14 -85 -21 0 -69 58 -69 84 0
33 23 34 55 1z m712 -16 c21 -8 24 -12 13 -19 -8 -5 -18 -6 -23 -3 -6 4 -7 -5
-3 -21 4 -18 3 -25 -4 -21 -5 3 -15 3 -21 -1 -8 -4 -4 -13 12 -26 24 -19 24
-19 -15 -3 -21 8 -39 15 -40 15 0 0 0 15 1 32 1 18 2 41 2 52 1 19 17 18 78
-5z m372 -145 c17 -14 31 -31 31 -37 0 -6 -10 -1 -23 11 -67 63 -147 -6 -138
-118 1 -20 -1 -22 -9 -10 -8 13 -10 13 -10 -1 0 -9 7 -23 16 -30 12 -10 14
-23 10 -51 -4 -21 -4 -38 0 -38 10 0 68 42 82 58 29 37 3 95 -51 115 -8 3 -7
10 5 22 16 17 18 16 47 -13 23 -23 31 -40 32 -69 0 -35 1 -36 10 -14 14 36 2
77 -33 106 -21 18 -28 29 -20 37 16 16 51 -1 68 -35 37 -71 -22 -251 -93 -285
-32 -15 -37 -15 -63 0 -35 20 -35 20 -45 -87 -8 -80 -31 -140 -68 -174 -23
-21 -29 -22 -44 -10 -15 11 -16 11 -5 -1 17 -19 15 -41 -3 -34 -8 4 -15 1 -15
-5 0 -17 -61 -81 -77 -81 -8 0 -11 -4 -8 -10 3 -5 2 -10 -4 -10 -5 0 -13 9
-16 21 -4 11 -9 19 -11 16 -3 -2 0 -16 5 -30 9 -24 8 -27 -14 -33 -14 -3 -25
-10 -25 -16 0 -5 -4 -6 -10 -3 -5 3 -10 11 -10 16 0 6 4 8 9 4 5 -3 12 -1 16
5 4 6 11 7 17 4 7 -4 8 -2 4 5 -6 9 -11 9 -22 0 -11 -9 -14 -8 -14 2 0 11 -2
11 -10 -1 -8 -12 -10 -12 -16 3 -3 9 -11 14 -16 11 -6 -4 -5 -10 3 -15 11 -7
9 -9 -6 -10 -11 -1 -24 -1 -30 0 -5 1 4 -9 20 -23 34 -27 29 -44 -7 -25 -21
11 -22 11 -9 -5 8 -9 11 -19 8 -23 -9 -8 -38 17 -31 28 3 5 -2 6 -11 3 -14 -6
-14 -8 1 -25 12 -14 13 -19 4 -19 -7 0 -19 8 -27 18 -13 14 -13 13 0 -8 14
-24 13 -26 -8 -37 -17 -7 -27 -7 -34 0 -8 8 -11 7 -11 -2 0 -7 -4 -9 -10 -6
-5 3 -10 0 -10 -7 -1 -9 -5 -7 -14 5 -11 15 -15 15 -19 3 -3 -8 -14 -13 -24
-11 -10 2 -20 4 -23 4 -15 3 -35 53 -40 103 -5 51 -4 55 12 47 9 -5 31 -9 48
-9 27 0 30 2 21 17 -7 13 -5 23 5 35 14 15 13 15 -23 3 -68 -25 -103 -16 -103
25 0 4 39 13 88 20 48 6 98 15 111 21 17 7 30 6 48 -6 24 -16 24 -16 14 4 -17
31 -41 40 -96 34 -34 -4 -63 0 -90 11 -36 15 -38 15 -24 1 10 -10 44 -20 85
-24 l69 -8 -80 -2 c-45 0 -86 -6 -92 -12 -6 -6 -21 -9 -34 -7 -20 2 -24 9 -27
43 l-2 40 19 -34 c21 -38 36 -28 26 18 -5 26 -3 30 26 40 62 21 88 68 57 99
-19 19 -30 14 -18 -7 19 -37 2 -55 -47 -51 -13 1 -43 -8 -67 -21 -57 -28 -96
-21 -96 19 0 39 27 148 45 182 9 17 22 30 29 30 7 0 31 -24 52 -52 50 -67 96
-85 177 -68 74 15 100 44 101 111 1 47 5 55 36 80 41 33 190 119 206 119 15 0
33 -43 40 -94 6 -40 8 -42 35 -38 29 4 29 4 29 77 0 65 2 74 20 80 11 3 20 13
20 22 0 9 18 33 40 55 50 47 93 51 139 12z m-665 -200 c9 -3 16 -10 16 -16 0
-5 -6 -6 -12 -1 -7 4 -31 10 -53 14 l-40 6 37 2 c20 0 43 -2 52 -5z m-75 -47
c-17 -13 -14 -33 9 -59 22 -26 36 -22 18 4 -26 36 -21 51 14 43 19 -4 36 -2
45 5 12 10 17 7 25 -16 6 -15 10 -46 8 -68 -3 -38 -6 -42 -43 -54 -40 -13
-110 -8 -100 7 2 5 -3 8 -12 7 -9 0 -25 14 -36 34 l-20 35 33 -30 34 -30 -32
44 c-18 25 -32 51 -32 58 0 13 48 31 85 32 18 0 18 -1 4 -12z m-250 -9 c14 -1
-1 -4 -34 -7 -68 -7 -70 -7 -60 9 5 7 19 10 37 6 17 -3 42 -7 57 -8z m31 -53
c10 -12 11 -26 4 -53 -7 -31 -14 -38 -37 -40 -18 -2 -37 4 -49 15 -20 18 -53
73 -46 77 2 2 21 10 43 18 41 16 60 13 85 -17z m981 -149 c27 -23 37 -43 54
-109 12 -45 28 -103 35 -129 l14 -47 -46 -58 c-71 -90 -196 -186 -335 -255
-120 -59 -153 -66 -153 -32 0 10 -14 41 -30 71 -17 29 -28 53 -25 53 3 0 18
-8 32 -17 l26 -17 70 74 69 75 -6 -70 c-4 -38 -9 -81 -12 -95 l-5 -25 15 25
c41 66 120 383 132 528 6 74 9 82 28 82 12 0 32 6 46 13 23 12 26 11 41 -13 9
-14 31 -38 50 -54z m209 -275 c0 -10 7 -38 15 -61 15 -42 14 -45 -9 -79 -38
-58 -319 -373 -382 -429 -49 -44 -177 -112 -211 -112 -5 0 -5 39 -1 86 9 101
14 108 131 178 176 103 337 252 407 374 36 64 50 76 50 43z m-726 -76 c3 -8 2
-15 -3 -15 -5 0 -14 7 -21 15 -10 12 -10 15 3 15 8 0 17 -7 21 -15z m786 -57
c0 -33 -175 -236 -262 -303 l-63 -49 50 59 c27 33 85 101 129 150 43 50 90
107 104 127 23 35 42 42 42 16z m113 -143 c373 -261 414 -298 492 -459 30 -61
72 -163 93 -226 22 -63 49 -139 61 -169 24 -58 22 -80 -11 -194 -21 -75 -35
-86 -19 -16 24 101 14 178 -39 331 -123 350 -238 508 -367 508 -33 0 -46 7
-88 51 -28 28 -101 89 -162 136 -62 47 -113 89 -113 92 0 7 21 31 27 31 2 0
58 -38 126 -85z m-60 -38 c43 -32 107 -86 143 -120 l65 -60 -72 -34 c-110 -51
-209 -156 -276 -293 -84 -170 -126 -361 -123 -550 1 -71 -2 -111 -8 -105 -13
14 -61 214 -68 283 -7 70 19 277 46 363 10 35 18 65 16 66 -2 2 -13 -11 -25
-29 -28 -44 -26 -28 4 35 30 65 139 210 224 299 35 38 59 68 53 68 -19 0 -177
-163 -219 -225 -115 -170 -215 -464 -212 -617 2 -50 2 -49 10 22 5 41 16 107
25 145 17 73 74 238 79 233 2 -2 -5 -35 -17 -73 -15 -54 -21 -111 -25 -250 -5
-172 -14 -229 -26 -168 l-6 28 -113 0 -114 1 12 -36 c7 -19 14 -46 16 -60 3
-23 -1 -25 -42 -30 -36 -4 -21 -8 78 -18 67 -7 131 -10 142 -7 13 4 20 2 20
-7 0 -26 31 -216 55 -341 l25 -128 -36 -65 c-30 -55 -36 -72 -31 -106 4 -29 0
-51 -15 -80 -16 -30 -19 -50 -15 -83 l6 -44 -57 -11 c-31 -7 -69 -18 -83 -26
-20 -10 -441 -84 -480 -84 -4 0 -2 19 6 41 17 46 19 87 6 107 -5 9 -11 -5 -15
-40 -4 -29 -11 -68 -17 -86 -10 -31 -12 -32 -65 -32 -41 0 -53 3 -48 13 64
110 91 139 186 198 148 91 141 75 133 319 -9 267 16 500 95 915 17 88 36 186
42 218 7 39 16 60 27 63 9 3 47 17 84 31 37 14 70 23 72 21 2 -2 -13 -31 -34
-64 -63 -100 -141 -289 -141 -343 0 -8 15 11 34 42 90 149 297 427 386 519 53
54 93 99 89 100 -4 2 17 38 48 81 34 48 59 75 66 70 7 -4 47 -33 90 -66z
m-1030 -4 c-53 -65 -83 -109 -83 -122 0 -7 21 -35 47 -64 46 -52 46 -52 -11 5
-47 47 -55 61 -47 75 13 24 121 153 128 153 3 0 -13 -21 -34 -47z m91 -85
c-81 -112 -94 -127 -64 -71 23 42 116 163 126 163 2 0 -26 -42 -62 -92z m236
-110 c-5 -13 -14 -66 -19 -118 -12 -111 -84 -512 -89 -490 -1 9 13 109 32 222
20 113 38 243 42 289 7 84 17 119 34 119 6 0 6 -8 0 -22z m1011 -8 c52 -15
120 -79 166 -157 81 -138 193 -442 193 -524 0 -62 -30 -189 -75 -320 -20 -57
-43 -125 -52 -152 -9 -26 -18 -46 -19 -44 -2 2 7 57 20 123 14 65 27 144 30
174 5 49 4 46 -12 -25 -44 -188 -126 -487 -159 -575 -20 -52 -61 -154 -93
-225 -32 -72 -82 -197 -111 -278 -51 -142 -69 -173 -69 -124 0 63 -81 235
-132 283 l-31 29 26 -35 c27 -38 81 -148 92 -190 3 -14 -9 2 -27 35 -42 76
-185 222 -259 263 -81 46 -109 49 -146 18 -23 -19 -33 -22 -41 -14 -22 22 -13
56 21 81 82 62 126 70 185 34 20 -13 60 -31 87 -41 28 -10 90 -38 138 -62 49
-24 91 -44 94 -44 3 0 -35 31 -83 68 -49 37 -116 89 -149 115 -56 44 -64 47
-117 47 -32 0 -80 -8 -108 -19 -48 -18 -50 -18 -55 0 -7 20 2 39 53 116 l35
53 -11 137 c-12 157 -12 160 66 275 63 93 118 202 177 353 61 153 135 302 192
385 25 36 36 56 24 45 -68 -60 -282 -432 -352 -610 -33 -87 -42 -90 -36 -15 4
42 3 58 -3 45 -15 -34 -12 50 6 156 52 310 202 536 405 609 62 22 80 24 130
10z m-1362 -35 c62 -71 64 -77 47 -136 -9 -29 -16 -62 -15 -73 0 -12 7 4 16
34 8 30 18 58 22 63 4 4 20 -15 34 -42 25 -45 27 -58 28 -177 1 -84 4 -118 9
-99 14 55 -1 -133 -36 -455 -56 -505 -91 -667 -178 -845 -63 -126 -99 -176
-116 -159 -8 8 -7 23 2 57 9 37 9 67 0 144 -25 198 -32 402 -20 603 11 206 25
289 28 165 1 -38 6 -95 10 -125 6 -33 7 57 4 230 -4 255 -1 328 21 480 l5 35
-16 -40 c-36 -92 -51 -227 -75 -665 -6 -118 -15 -232 -20 -252 l-9 -37 -83 28
c-45 16 -101 38 -124 50 -23 11 -52 21 -64 21 l-22 0 21 23 c11 12 31 52 44
88 29 79 70 132 159 205 48 39 69 63 74 87 4 17 9 120 10 227 4 247 22 368 71
468 34 70 95 132 129 132 7 0 27 -16 44 -35z m1999 -427 c71 -77 62 -139 -138
-878 -11 -41 -40 -154 -65 -250 -49 -188 -126 -442 -132 -436 -2 2 12 68 32
147 20 79 59 239 86 354 27 116 87 357 134 536 94 361 102 425 65 507 -21 46
-15 54 18 20z m-1784 -181 c-10 -66 -19 -116 -21 -110 -2 6 3 61 11 122 9 62
16 117 17 124 0 8 2 8 6 -1 3 -7 -3 -68 -13 -135z m-2272 -303 c37 -197 93
-484 124 -638 30 -153 53 -280 51 -283 -3 -2 -49 14 -103 35 -162 65 -151 56
-168 131 -21 95 -206 1024 -206 1036 0 11 207 85 224 81 5 -1 40 -164 78 -362z
m2295 294 c-3 -7 -5 -2 -5 12 0 14 2 19 5 13 2 -7 2 -19 0 -25z m-13 -77 c-4
-28 -9 -50 -11 -47 -3 3 -2 28 2 56 4 28 9 49 12 47 2 -3 1 -28 -3 -56z m-497
-38 c-3 -10 -5 -2 -5 17 0 19 2 27 5 18 2 -10 2 -26 0 -35z m469 -175 c-9 -68
-21 -172 -27 -233 -11 -112 -19 -146 -19 -84 0 42 25 274 42 389 18 127 22 69
4 -72z m471 -5 c-2 -16 -4 -3 -4 27 0 30 2 43 4 28 2 -16 2 -40 0 -55z m-2690
-5 c-3 -8 -6 -5 -6 6 -1 11 2 17 5 13 3 -3 4 -12 1 -19z m10 -70 c-3 -7 -5 -2
-5 12 0 14 2 19 5 13 2 -7 2 -19 0 -25z m10 -55 c-3 -10 -5 -4 -5 12 0 17 2
24 5 18 2 -7 2 -21 0 -30z m3694 -50 c-11 -21 -20 -35 -21 -31 0 12 33 78 38
74 2 -2 -6 -21 -17 -43z m-3684 -5 c-3 -7 -5 -2 -5 12 0 14 2 19 5 13 2 -7 2
-19 0 -25z m10 -60 c-3 -7 -5 -2 -5 12 0 14 2 19 5 13 2 -7 2 -19 0 -25z m10
-50 c-3 -7 -5 -2 -5 12 0 14 2 19 5 13 2 -7 2 -19 0 -25z m10 -60 c-3 -7 -5
-2 -5 12 0 14 2 19 5 13 2 -7 2 -19 0 -25z m1488 13 c81 -37 122 -76 144 -136
25 -66 25 -75 7 -100 -13 -19 -19 -15 -98 67 -90 93 -126 110 -181 89 -28 -11
-29 -11 -22 21 12 58 31 78 73 78 20 0 55 -9 77 -19z m-1467 -111 c0 -22 -1
-22 -8 5 -4 17 -8 41 -8 55 0 22 1 22 8 -5 4 -16 8 -41 8 -55z m1449 -25 l28
-24 -50 18 c-27 10 -57 21 -65 24 -8 3 2 6 22 6 26 1 45 -6 65 -24z m-96 -15
c81 -15 112 -31 139 -75 33 -54 20 -59 -35 -14 -91 73 -90 63 0 -24 99 -94
137 -158 117 -201 -9 -19 -22 -24 -94 -33 -45 -6 -137 -19 -203 -29 l-121 -18
-98 24 c-54 13 -99 28 -101 34 -15 55 -40 107 -65 134 l-29 33 25 9 c13 5 41
21 62 35 26 18 50 25 83 25 40 0 54 6 91 37 47 39 136 84 155 78 6 -2 40 -9
74 -15z m-1344 -22 c-3 -7 -5 -2 -5 12 0 14 2 19 5 13 2 -7 2 -19 0 -25z m31
-148 c-1 -23 -26 82 -26 110 0 14 6 -2 14 -35 7 -33 13 -67 12 -75z m367 26
c65 -11 68 -13 47 -25 -13 -7 -21 -15 -18 -18 3 -4 -1 -15 -11 -25 -9 -10 -11
-18 -5 -18 6 0 30 23 53 50 50 59 68 62 130 21 98 -66 112 -83 119 -144 3 -31
2 -57 -2 -57 -4 0 -8 5 -8 11 0 5 -10 3 -22 -5 -33 -23 -64 -19 -87 10 -28 35
-26 50 7 69 l27 16 -29 -6 c-24 -5 -27 -3 -22 10 3 10 -15 -1 -41 -22 -91 -75
-125 -94 -142 -79 -29 24 -46 29 -23 7 12 -12 22 -28 22 -36 0 -18 -49 -75
-65 -75 -8 0 -11 -9 -7 -25 8 -46 -37 -74 -58 -35 -8 16 -4 32 20 80 16 32 30
70 30 82 0 28 43 93 71 109 11 6 18 13 15 16 -3 4 1 15 11 25 32 35 -4 17 -41
-21 -21 -21 -55 -47 -76 -56 -27 -12 -43 -29 -56 -57 -22 -49 -32 -55 -44 -26
-7 17 -8 9 -3 -29 5 -44 3 -54 -12 -59 -19 -8 -42 12 -46 41 -3 24 57 121 118
189 53 59 73 93 48 79 -20 -12 -95 -102 -137 -165 -17 -27 -34 -48 -38 -48 -5
0 -10 20 -11 44 -2 25 0 42 5 38 5 -3 6 2 3 12 -4 9 -3 15 2 11 5 -3 17 17 26
44 17 53 28 66 60 74 36 9 119 6 190 -7z m437 -34 c37 -24 66 -63 83 -113 8
-23 15 -43 15 -45 0 -2 -15 -4 -34 -4 -19 0 -45 -4 -58 -9 -71 -26 -75 -24
-82 26 -7 53 -39 106 -75 125 -23 12 -22 13 30 24 77 17 91 16 121 -4z m-795
-44 c-3 -7 -5 -2 -5 12 0 14 2 19 5 13 2 -7 2 -19 0 -25z m10 -40 c-3 -8 -6
-5 -6 6 -1 11 2 17 5 13 3 -3 4 -12 1 -19z m10 -50 c-3 -8 -6 -5 -6 6 -1 11 2
17 5 13 3 -3 4 -12 1 -19z m2678 -18 c90 -62 315 -338 339 -417 9 -28 -15 -76
-63 -126 -60 -64 -80 -70 -195 -63 -255 17 -573 65 -676 101 -63 22 -59 13 11
-24 65 -36 72 -46 19 -31 -57 16 -44 5 37 -33 151 -70 420 -127 601 -127 115
0 137 7 204 68 86 77 147 167 178 259 35 106 37 103 9 -18 -17 -74 -28 -99
-57 -133 -74 -85 -148 -159 -189 -187 l-42 -29 -173 10 c-95 5 -236 10 -313
10 -220 0 -578 38 -795 83 -95 20 -106 25 -118 50 -7 15 -12 31 -10 36 2 4 46
-5 98 -21 89 -26 365 -79 493 -94 70 -8 296 5 276 16 -8 4 -66 20 -129 35 -63
15 -180 45 -260 66 -80 21 -171 43 -202 49 l-58 11 17 32 c19 36 22 100 9 203
-10 85 -16 81 131 95 57 5 203 28 326 50 178 32 229 45 258 64 19 14 46 25 60
25 14 0 47 6 73 14 26 8 64 12 84 9 l37 -5 -30 26 c-44 37 -6 35 50 -4z
m-2668 -22 c-3 -8 -6 -5 -6 6 -1 11 2 17 5 13 3 -3 4 -12 1 -19z m1649 -53
c-8 -41 -10 -42 -67 -51 l-44 -6 55 56 c57 59 66 59 56 1z m-1639 13 c-3 -8
-6 -5 -6 6 -1 11 2 17 5 13 3 -3 4 -12 1 -19z m910 -29 c43 -17 110 -42 148
-56 76 -27 98 -41 90 -54 -3 -4 4 -18 17 -31 31 -31 38 -137 12 -207 l-17 -49
-66 -13 c-112 -21 -158 -16 -252 31 -46 24 -97 52 -113 63 -16 11 -45 26 -65
33 -35 13 -34 13 39 14 72 0 78 -2 127 -39 64 -48 161 -77 226 -67 43 7 104
42 93 54 -3 3 -15 -3 -25 -12 -11 -10 -38 -22 -61 -27 -75 -17 -203 30 -268
97 -21 22 -31 24 -110 24 -84 0 -92 -2 -180 -45 -89 -43 -142 -56 -142 -34 0
15 110 124 150 148 30 18 51 21 138 21 68 0 102 4 102 11 0 8 -34 10 -112 7
-132 -5 -182 -25 -258 -102 -44 -46 -63 -55 -75 -36 -15 24 91 162 160 208 46
30 54 32 144 33 53 0 105 4 116 9 13 6 -18 9 -88 9 -70 1 -119 -4 -140 -13
-43 -18 -117 -85 -162 -146 -40 -55 -69 -69 -37 -18 35 55 141 156 190 180 45
22 93 28 299 36 27 1 70 -9 120 -29z m-900 -11 c-3 -8 -6 -5 -6 6 -1 11 2 17
5 13 3 -3 4 -12 1 -19z m10 -40 c-3 -8 -6 -5 -6 6 -1 11 2 17 5 13 3 -3 4 -12
1 -19z m-380 -169 c176 -81 338 -152 360 -158 43 -11 799 -35 814 -25 6 3 22
3 37 -1 l27 -8 -25 -6 c-14 -4 -216 -3 -449 2 l-424 8 -216 101 c-236 110
-382 182 -451 223 -84 50 3 13 327 -136z m1986 120 c12 -24 19 -72 24 -147 5
-94 3 -115 -11 -136 -19 -29 -27 -30 -130 -15 l-74 11 5 77 c4 71 -11 151 -41
223 -9 20 22 26 134 24 l75 -1 18 -36z m-2208 21 c3 -6 -1 -7 -9 -4 -18 7 -21
14 -7 14 6 0 13 -4 16 -10z m100 0 c-3 -5 -14 -10 -23 -10 -15 0 -15 2 -2 10
20 13 33 13 25 0z m122 -16 c-5 -5 -57 13 -57 20 0 3 14 0 31 -6 16 -6 28 -12
26 -14z m66 7 c97 -44 226 -100 280 -122 31 -12 57 -27 57 -31 0 -5 4 -6 10
-3 5 3 18 1 27 -4 15 -9 13 -10 -14 -11 -18 0 -33 5 -33 10 0 6 -9 10 -19 10
-11 0 -26 6 -33 13 -7 8 -18 12 -23 11 -6 -2 -77 30 -160 71 -82 40 -146 74
-142 74 4 1 27 -8 50 -18z m1688 -25 c34 -78 38 -227 6 -270 -11 -15 -18 -15
-92 0 l-81 16 10 58 c11 70 -12 181 -46 217 l-21 23 102 0 102 0 20 -44z
m-1931 14 c8 -5 11 -10 5 -10 -5 0 -17 5 -25 10 -8 5 -10 10 -5 10 6 0 17 -5
25 -10z m215 -18 c-3 -3 -11 0 -18 7 -9 10 -8 11 6 5 10 -3 15 -9 12 -12z
m-139 -18 c18 -14 18 -14 -6 -3 -31 14 -36 19 -24 19 6 0 19 -7 30 -16z m59
-32 c-3 -3 -11 0 -18 7 -9 10 -8 11 6 5 10 -3 15 -9 12 -12z m415 14 c0 -3 -4
-8 -10 -11 -5 -3 -10 -1 -10 4 0 6 5 11 10 11 6 0 10 -2 10 -4z m-253 -22 c-3
-3 -12 -4 -19 -1 -8 3 -5 6 6 6 11 1 17 -2 13 -5z m-87 -19 c14 -8 21 -14 15
-14 -5 0 -21 6 -35 14 -14 8 -20 14 -15 14 6 0 21 -6 35 -14z m150 5 c0 -5 -8
-10 -17 -10 -15 0 -16 2 -3 10 19 12 20 12 20 0z m325 0 c3 -6 -1 -7 -9 -4
-18 7 -21 14 -7 14 6 0 13 -4 16 -10z m3362 -12 c-3 -8 -6 -5 -6 6 -1 11 2 17
5 13 3 -3 4 -12 1 -19z m-3407 -8 c0 -5 -7 -7 -15 -4 -8 4 -15 8 -15 10 0 2 7
4 15 4 8 0 15 -4 15 -10z m-375 -18 c-3 -3 -11 0 -18 7 -9 10 -8 11 6 5 10 -3
15 -9 12 -12z m163 8 c13 0 21 -4 18 -9 -4 -6 -21 -5 -43 1 -26 7 -38 7 -41 0
-2 -6 -11 -8 -19 -5 -14 6 -14 8 3 14 10 5 28 6 39 4 11 -3 30 -5 43 -5z m-78
-40 c19 -11 31 -19 25 -19 -5 0 -26 8 -45 19 -19 11 -30 19 -25 19 6 0 26 -8
45 -19z m77 5 c42 -18 53 -19 53 -5 0 6 -8 10 -17 11 -10 0 -13 3 -7 5 7 3 27
-1 45 -9 l34 -14 -42 -6 c-30 -5 -53 -2 -85 12 -51 23 -34 28 19 6z m373 -5
c11 -7 3 -10 -30 -9 -34 0 -40 2 -25 9 27 12 37 12 55 0z m-181 -47 c4 -3 -2
-3 -12 0 -11 4 -30 10 -43 13 -13 3 -24 10 -24 15 0 9 68 -15 79 -28z m101 11
c0 -2 -10 -2 -22 0 -13 3 -29 5 -36 5 -7 1 -11 5 -7 10 5 9 65 -5 65 -15z
m105 6 c3 -5 -1 -10 -9 -10 -9 0 -16 5 -16 10 0 6 4 10 9 10 6 0 13 -4 16 -10z
m-375 -15 c14 -8 21 -14 15 -14 -5 0 -21 6 -35 14 -14 8 -20 14 -15 14 6 0 21
-6 35 -14z m98 -2 c-10 -2 -28 -2 -40 0 -13 2 -5 4 17 4 22 1 32 -1 23 -4z
m-9 -29 c10 -9 -35 -3 -49 6 -11 8 -7 9 15 4 17 -4 32 -8 34 -10z m126 6 c15
-6 7 -9 -30 -8 -39 0 -45 2 -25 8 32 10 31 10 55 0z m629 -41 c12 -13 -477 -4
-500 9 -7 4 100 6 239 5 170 -2 254 -7 261 -14z m564 -30 c61 -11 70 -20 53
-48 -13 -20 -172 33 -164 55 4 10 14 14 27 10 11 -2 49 -10 84 -17z"/>
<path d="M3128 4073 c7 -3 16 -2 19 1 4 3 -2 6 -13 5 -11 0 -14 -3 -6 -6z"/>
<path d="M3516 3732 l-19 -27 24 22 c12 12 21 24 18 27 -2 2 -13 -8 -23 -22z"/>
<path d="M3223 3522 c-53 -75 -67 -106 -82 -174 -7 -32 -17 -60 -22 -63 -5 -4
-9 -12 -9 -18 0 -7 4 -6 10 3 8 13 10 12 10 -2 0 -20 15 -24 26 -6 4 6 3 8 -3
5 -13 -8 -22 12 -15 31 3 10 9 9 26 -5 11 -9 15 -11 9 -3 -7 8 -13 38 -13 66
0 48 6 61 56 134 30 45 54 84 52 86 -3 2 -22 -22 -45 -54z"/>
<path d="M3073 3237 c4 -10 0 -17 -11 -20 -12 -3 -11 -5 6 -6 23 -1 31 22 10
35 -7 5 -9 2 -5 -9z"/>
<path d="M2911 3084 c0 -11 3 -14 6 -6 3 7 2 16 -1 19 -3 4 -6 -2 -5 -13z"/>
<path d="M3592 2185 c-1 -49 5 -119 13 -155 12 -54 13 -57 8 -15 -3 28 -9 97
-13 155 l-7 105 -1 -90z"/>
<path d="M3161 1898 c-44 -204 -97 -558 -89 -595 2 -10 10 27 17 82 14 111 58
380 67 407 3 9 13 19 22 21 15 4 15 5 -1 6 -15 1 -17 7 -13 29 14 68 18 102
13 102 -3 0 -10 -23 -16 -52z"/>
<path d="M3208 1943 c7 -3 16 -2 19 1 4 3 -2 6 -13 5 -11 0 -14 -3 -6 -6z"/>
<path d="M3161 1440 c0 -30 5 -75 13 -100 7 -25 11 -51 9 -57 -7 -20 5 -15 17
6 7 14 7 28 -1 48 -6 15 -17 57 -24 93 l-13 65 -1 -55z"/>
<path d="M3259 1253 c12 -24 111 -113 125 -113 5 0 7 1 5 3 -3 1 -35 31 -73
67 -38 36 -63 55 -57 43z"/>
<path d="M3837 2442 c-49 -61 -110 -187 -136 -280 -20 -74 -39 -202 -28 -192
3 3 22 60 42 125 45 146 82 239 134 328 22 37 37 67 33 67 -4 -1 -24 -22 -45
-48z"/>
<path d="M4138 1929 c-12 -16 -56 -58 -98 -92 -159 -131 -296 -276 -354 -375
-16 -27 28 5 164 121 146 124 250 243 309 355 17 32 6 27 -21 -9z"/>
<path d="M3618 1450 c-4 -14 -7 -45 -7 -70 l1 -45 9 45 c5 25 8 56 7 70 l-3
25 -7 -25z"/>
<path d="M2861 2414 c0 -11 3 -14 6 -6 3 7 2 16 -1 19 -3 4 -6 -2 -5 -13z"/>
<path d="M2744 2130 c13 -83 48 -253 57 -274 14 -34 0 66 -28 194 -26 118 -40
160 -29 80z"/>
<path d="M2491 1660 c-1 -61 11 -140 21 -134 10 7 1 115 -13 149 -6 16 -8 13
-8 -15z"/>
<path d="M2860 1513 c-20 -95 -21 -111 -6 -71 15 39 32 128 24 128 -3 0 -11
-26 -18 -57z"/>
<path d="M2732 1429 c-2 -26 -25 -97 -56 -174 l-17 -40 20 23 c32 36 62 130
58 176 -2 23 -4 29 -5 15z"/>
<path d="M2232 1128 c36 -40 81 -95 102 -122 20 -28 46 -51 56 -53 26 -4 25 1
-9 51 -37 53 -101 130 -101 121 0 -4 -20 11 -45 34 -71 65 -73 48 -3 -31z"/>
<path d="M2178 1095 c6 -11 29 -40 52 -65 37 -40 39 -42 23 -12 -10 18 -33 47
-52 65 -21 20 -29 25 -23 12z"/>
<path d="M1923 948 c16 -10 184 -10 190 0 3 4 -41 7 -98 7 -57 0 -98 -3 -92
-7z"/>
<path d="M3570 877 c0 -6 128 -109 150 -122 17 -9 -23 39 -55 66 -23 21 -95
62 -95 56z"/>
<path d="M3569 708 c28 -41 51 -81 51 -90 0 -21 -41 -27 -255 -34 -222 -8
-379 6 -447 39 -26 13 -44 19 -41 14 29 -47 284 -93 648 -118 93 -6 191 -14
217 -18 29 -5 48 -4 48 2 0 20 -75 110 -153 183 -113 105 -129 110 -68 22z"/>
<path d="M3759 612 c58 -62 108 -112 113 -112 23 0 0 33 -79 111 -131 128
-153 128 -34 1z"/>
<path d="M2835 670 c10 -11 20 -20 23 -20 3 0 -3 9 -13 20 -10 11 -20 20 -23
20 -3 0 3 -9 13 -20z"/>
<path d="M1969 791 c63 -22 116 -39 118 -37 6 5 -166 67 -202 72 -16 3 21 -13
84 -35z"/>
<path d="M3988 4172 l-88 -88 0 -122 0 -121 -56 -66 c-31 -36 -54 -68 -52 -70
2 -2 29 25 61 61 l57 65 0 122 1 122 77 83 78 82 312 0 c201 0 312 4 312 10 0
6 -109 10 -307 10 l-307 0 -88 -88z"/>
<path d="M4210 4060 c0 -6 90 -10 253 -9 161 1 236 4 207 10 -67 11 -460 11
-460 -1z"/>
<path d="M4215 3990 c4 -6 72 -10 171 -10 103 0 164 4 164 10 0 6 -64 10 -171
10 -111 0 -168 -3 -164 -10z"/>
<path d="M3902 3732 c-96 -95 -172 -175 -169 -178 2 -2 80 72 172 166 l169
170 190 0 c104 0 187 2 184 5 -3 3 -88 7 -189 9 l-184 2 -173 -174z"/>
<path d="M4353 3753 c43 -2 110 -2 150 0 40 1 5 3 -78 3 -82 0 -115 -2 -72 -3z"/>
<path d="M1630 3731 c-47 -10 -107 -27 -135 -36 -94 -32 -243 -117 -347 -199
-57 -44 -127 -99 -155 -121 -52 -40 -73 -78 -73 -135 0 -17 -25 -52 -76 -110
-42 -47 -88 -105 -103 -130 l-26 -45 -1 -280 -1 -280 6 275 6 275 28 51 c15
27 59 84 97 125 l69 74 2 -365 c2 -201 2 -378 1 -394 -4 -50 -16 -56 -118 -56
l-94 0 2 -77 2 -78 3 73 4 72 88 0 c138 0 126 -42 129 438 l3 409 34 33 35 34
1 -455 c1 -249 4 -488 8 -529 l6 -75 136 -3 c137 -3 137 -3 143 -28 4 -13 6
-124 5 -246 -2 -204 0 -222 17 -235 20 -14 135 -17 297 -6 l97 6 0 253 0 253
48 3 47 3 3 564 c2 427 -1 567 -10 578 -10 12 -53 14 -272 9 -144 -3 -318 -5
-388 -6 l-127 0 -8 -41 c-6 -29 -18 -49 -41 -67 l-32 -25 0 40 c0 38 4 42 117
133 254 206 395 278 615 316 124 22 237 15 311 -19 44 -20 76 -49 168 -152
125 -139 133 -150 125 -170 -3 -10 -41 23 -116 99 -61 62 -132 125 -158 139
-66 36 -154 57 -227 56 -60 -2 -59 -2 20 -9 94 -9 176 -36 238 -78 61 -42 219
-212 213 -229 -3 -7 -2 -13 3 -13 13 0 41 35 41 52 0 8 -53 75 -118 149 -154
174 -184 191 -345 196 -82 2 -135 -2 -197 -16z m172 -923 c2 -403 0 -557 -8
-567 -8 -9 -22 -11 -43 -6 l-31 7 0 559 0 559 40 0 39 0 3 -552z m-177 7 l0
-480 -275 -3 c-227 -2 -279 0 -295 12 -19 14 -20 28 -18 477 1 372 4 463 15
470 7 5 139 8 293 6 l280 -2 0 -480z m-142 -562 c-62 -2 -165 -2 -230 0 -65 1
-14 3 112 3 127 0 180 -2 118 -3z m-101 -130 l3 -98 86 -3 86 -3 32 36 c28 32
31 42 31 100 l0 65 45 0 45 0 0 -250 0 -250 -192 2 -193 3 -3 248 -2 247 29 0
30 0 3 -97z m129 30 c1 -53 3 -61 9 -38 4 17 8 47 9 68 1 37 1 37 42 37 l41 0
-4 -71 c-3 -63 -7 -74 -31 -95 -25 -21 -38 -24 -108 -24 l-79 0 0 95 0 95 60
0 60 0 1 -67z"/>
<path d="M1327 3173 l173 -3 3 -178 2 -177 3 183 2 182 -177 -2 -178 -2 172
-3z"/>
<path d="M1554 2915 c0 -148 2 -211 3 -138 2 72 2 194 0 270 -1 76 -3 17 -3
-132z"/>
<path d="M1537 2543 c-4 -3 -7 -15 -7 -25 0 -13 8 -18 29 -18 33 0 44 11 35
34 -6 16 -45 22 -57 9z m48 -18 c0 -5 -10 -11 -22 -13 -16 -2 -23 2 -23 13 0
11 7 15 23 13 12 -2 22 -7 22 -13z"/>
<path d="M1532 2458 c2 -17 11 -24 31 -26 23 -3 27 0 27 22 0 22 -4 26 -31 26
-26 0 -30 -3 -27 -22z m48 -3 c0 -8 -9 -15 -20 -15 -11 0 -20 7 -20 15 0 8 9
15 20 15 11 0 20 -7 20 -15z"/>
<path d="M1510 2380 c0 -5 18 -10 40 -10 22 0 40 5 40 10 0 6 -18 10 -40 10
-22 0 -40 -4 -40 -10z"/>
<path d="M4220 3700 c0 -5 5 -10 10 -10 6 0 10 5 10 10 0 6 -4 10 -10 10 -5 0
-10 -4 -10 -10z"/>
<path d="M4280 3698 c0 -4 21 -8 46 -8 28 0 43 4 39 10 -8 12 -85 10 -85 -2z"/>
<path d="M2231 3585 c0 -12 107 -130 113 -124 2 2 -23 33 -55 69 -32 36 -59
61 -58 55z"/>
<path d="M4110 3560 c0 -6 103 -10 290 -10 187 0 290 4 290 10 0 6 -103 10
-290 10 -187 0 -290 -4 -290 -10z"/>
<path d="M4110 3500 c0 -6 93 -10 260 -10 167 0 260 4 260 10 0 6 -93 10 -260
10 -167 0 -260 -4 -260 -10z"/>
<path d="M4223 3423 c65 -2 168 -2 230 0 62 1 9 3 -118 3 -126 0 -177 -2 -112
-3z"/>
<path d="M3810 3380 l-115 -6 138 -2 137 -2 0 -132 0 -133 31 -17 c17 -10 36
-18 43 -18 6 0 36 25 66 55 30 30 50 55 44 55 -5 0 -32 -22 -59 -50 -27 -27
-54 -50 -60 -50 -5 1 -20 9 -32 19 -22 18 -23 27 -23 150 0 106 -3 131 -14
131 -8 0 -20 1 -28 3 -7 2 -65 0 -128 -3z"/>
<path d="M2023 3183 c76 -2 198 -2 270 0 73 1 11 3 -138 3 -148 0 -208 -2
-132 -3z"/>
<path d="M4170 3179 c0 -4 117 -8 260 -8 171 -1 260 2 260 8 0 7 -88 10 -260
9 -143 -2 -260 -6 -260 -9z"/>
<path d="M2013 3113 c76 -2 198 -2 270 0 73 1 11 3 -138 3 -148 0 -208 -2
-132 -3z"/>
<path d="M4207 3090 c-45 -5 -51 -9 -84 -55 l-35 -50 42 48 42 47 102 0 c55 0
108 5 116 10 15 11 -80 11 -183 0z"/>
<path d="M2215 3061 c66 -3 138 -3 160 0 22 4 -32 6 -120 6 l-160 -1 120 -5z"/>
<path d="M4308 2913 c56 -2 148 -2 205 0 56 1 10 3 -103 3 -113 0 -159 -2
-102 -3z"/>
<path d="M4365 2860 c-58 -5 -24 -7 123 -8 129 -1 202 2 202 8 0 11 -188 11
-325 0z"/>
<path d="M2388 2813 c7 -3 16 -2 19 1 4 3 -2 6 -13 5 -11 0 -14 -3 -6 -6z"/>
<path d="M4473 2803 c15 -2 39 -2 55 0 15 2 2 4 -28 4 -30 0 -43 -2 -27 -4z"/>
<path d="M4549 2703 l120 -4 -6 -119 c-4 -70 -2 -120 3 -120 5 0 9 55 9 123
l0 122 -123 0 -122 1 119 -3z"/>
<path d="M2133 2623 c-7 -3 -13 -11 -13 -19 0 -16 18 -18 38 -5 11 6 11 10 0
18 -7 6 -19 8 -25 6z m17 -13 c0 -5 -5 -10 -11 -10 -5 0 -7 5 -4 10 3 6 8 10
11 10 2 0 4 -4 4 -10z"/>
<path d="M2167 2575 c-5 -12 -28 -15 -132 -15 -122 0 -165 -8 -165 -32 0 -6 8
-4 18 5 15 14 42 17 151 17 109 0 133 3 138 15 3 9 3 18 0 21 -2 3 -7 -2 -10
-11z"/>
<path d="M2000 2490 c0 -5 7 -10 15 -10 8 0 15 5 15 10 0 6 -7 10 -15 10 -8 0
-15 -4 -15 -10z"/>
<path d="M2056 2447 c-24 -34 -26 -38 -7 -22 23 20 45 54 39 60 -2 2 -16 -15
-32 -38z"/>
<path d="M2520 2393 c-25 -27 -63 -67 -85 -91 l-40 -43 -5 -182 -5 -182 -173
-3 -173 -2 3 254 c2 140 0 248 -5 241 -4 -8 -6 -123 -5 -257 l3 -243 180 0
180 0 5 181 5 181 37 44 c21 24 59 68 84 97 58 65 54 68 -6 5z"/>
<path d="M1293 1623 c15 -2 37 -2 50 0 12 2 0 4 -28 4 -27 0 -38 -2 -22 -4z"/>
<path d="M1700 1620 l305 -5 3 -85 c4 -104 0 -120 -39 -165 -17 -19 -25 -33
-17 -30 8 3 26 20 39 38 21 28 24 45 27 130 3 67 0 102 -8 112 -11 13 -59 15
-314 13 l-301 -3 305 -5z"/>
<path d="M1193 1553 c70 -2 184 -2 255 0 70 1 12 3 -128 3 -140 0 -198 -2
-127 -3z"/>
<path d="M1175 1500 c-69 -4 -22 -7 148 -8 166 -1 247 1 247 8 0 11 -197 11
-395 0z"/>
<path d="M1085 1430 c8 -14 645 -14 645 0 0 6 -115 10 -326 10 -214 0 -323 -3
-319 -10z"/>
<path d="M4375 767 c-72 -182 -140 -326 -185 -392 -40 -60 -45 -69 -31 -61 38
24 166 257 224 411 38 101 70 205 64 211 -2 2 -34 -74 -72 -169z"/>
<path d="M274 665 c79 -49 137 -77 142 -72 5 5 -21 22 -117 76 -77 43 -98 39
-25 -4z"/>
<path d="M4281 134 c0 -11 3 -14 6 -6 3 7 2 16 -1 19 -3 4 -6 -2 -5 -13z"/>
<path d="M4261 64 c-7 -25 -10 -48 -8 -51 3 -2 10 17 16 43 7 25 10 48 8 51
-3 2 -10 -17 -16 -43z"/>
</g>
</svg>